<?xml version="1.0" encoding="UTF-8" ?>
<svg version="1.1" width="64" height="64" xmlns="http://www.w3.org/2000/svg" shape-rendering="crispEdges">
<rect x="24" y="2" width="1" height="16" fill="#000000" />
<rect x="25" y="2" width="1" height="1" fill="#000000" opacity="0.968627" />
<rect x="26" y="2" width="12" height="15" fill="#000000" />
<rect x="38" y="2" width="1" height="1" fill="#000000" opacity="0.945098" />
<rect x="39" y="2" width="1" height="16" fill="#000000" />
<rect x="21" y="3" width="3" height="14" fill="#000000" />
<rect x="25" y="3" width="1" height="15" fill="#000000" />
<rect x="38" y="3" width="1" height="15" fill="#000000" />
<rect x="40" y="3" width="3" height="14" fill="#000000" />
<rect x="18" y="4" width="1" height="1" fill="#000000" opacity="0.047059" />
<rect x="19" y="4" width="2" height="12" fill="#000000" />
<rect x="43" y="4" width="2" height="12" fill="#000000" />
<rect x="17" y="5" width="2" height="10" fill="#000000" />
<rect x="45" y="5" width="2" height="9" fill="#000000" />
<rect x="15" y="6" width="2" height="9" fill="#000000" />
<rect x="47" y="6" width="2" height="9" fill="#000000" />
<rect x="13" y="7" width="2" height="17" fill="#000000" />
<rect x="49" y="7" width="1" height="11" fill="#000000" />
<rect x="12" y="8" width="1" height="20" fill="#000000" />
<rect x="50" y="8" width="2" height="18" fill="#000000" />
<rect x="11" y="9" width="1" height="37" fill="#000000" />
<rect x="52" y="9" width="1" height="1" fill="#000000" opacity="0.996078" />
<rect x="10" y="10" width="1" height="35" fill="#000000" />
<rect x="52" y="10" width="2" height="46" fill="#000000" />
<rect x="9" y="11" width="1" height="34" fill="#000000" />
<rect x="54" y="11" width="1" height="44" fill="#000000" />
<rect x="8" y="12" width="1" height="42" fill="#000000" />
<rect x="55" y="12" width="1" height="42" fill="#000000" />
<rect x="7" y="13" width="1" height="40" fill="#000000" />
<rect x="56" y="13" width="1" height="40" fill="#000000" />
<rect x="6" y="14" width="1" height="1" fill="#000000" opacity="0.474510" />
<rect x="45" y="14" width="1" height="1" fill="#000000" />
<rect x="46" y="14" width="1" height="1" fill="#000000" opacity="0.952941" />
<rect x="6" y="15" width="1" height="37" fill="#000000" />
<rect x="15" y="15" width="1" height="1" fill="#000000" />
<rect x="48" y="15" width="1" height="1" fill="#000000" />
<rect x="57" y="15" width="1" height="37" fill="#000000" />
<rect x="5" y="16" width="1" height="34" fill="#000000" />
<rect x="58" y="16" width="1" height="1" fill="#000000" opacity="0.968627" />
<rect x="4" y="17" width="1" height="1" fill="#000000" opacity="0.149020" />
<rect x="23" y="17" width="1" height="1" fill="#000000" opacity="0.945098" />
<rect x="26" y="17" width="1" height="1" fill="#000000" />
<rect x="37" y="17" width="1" height="1" fill="#000000" />
<rect x="40" y="17" width="1" height="1" fill="#000000" />
<rect x="58" y="17" width="1" height="33" fill="#000000" />
<rect x="4" y="18" width="1" height="30" fill="#000000" />
<rect x="49" y="18" width="1" height="1" fill="#000000" opacity="0.996078" />
<rect x="59" y="18" width="1" height="30" fill="#000000" />
<rect x="3" y="19" width="1" height="1" fill="#000000" opacity="0.396078" />
<rect x="49" y="19" width="1" height="1" fill="#000000" opacity="0.921569" />
<rect x="3" y="20" width="1" height="26" fill="#000000" />
<rect x="49" y="20" width="1" height="4" fill="#000000" />
<rect x="60" y="20" width="1" height="27" fill="#000000" />
<rect x="2" y="21" width="1" height="1" fill="#000000" opacity="0.003922" />
<rect x="2" y="22" width="1" height="22" fill="#000000" />
<rect x="61" y="22" width="1" height="21" fill="#000000" />
<rect x="1" y="24" width="1" height="1" fill="#000000" opacity="0.031373" />
<rect x="13" y="24" width="1" height="2" fill="#000000" />
<rect x="1" y="25" width="1" height="1" fill="#000000" opacity="0.929412" />
<rect x="62" y="25" width="1" height="16" fill="#000000" />
<rect x="1" y="26" width="1" height="15" fill="#000000" />
<rect x="51" y="26" width="1" height="2" fill="#000000" />
<rect x="51" y="28" width="1" height="1" fill="#000000" opacity="0.003922" />
<rect x="63" y="32" width="1" height="1" fill="#000000" opacity="0.007843" />
<rect x="63" y="33" width="1" height="1" fill="#000000" opacity="0.011765" />
<rect x="63" y="34" width="1" height="1" fill="#000000" opacity="0.003922" />
<rect x="12" y="36" width="1" height="1" fill="#000000" opacity="0.003922" />
<rect x="51" y="36" width="1" height="22" fill="#000000" />
<rect x="12" y="37" width="1" height="9" fill="#000000" />
<rect x="13" y="39" width="1" height="1" fill="#000000" opacity="0.003922" />
<rect x="50" y="39" width="1" height="19" fill="#000000" />
<rect x="13" y="40" width="1" height="7" fill="#000000" />
<rect x="14" y="41" width="1" height="7" fill="#000000" />
<rect x="49" y="41" width="1" height="1" fill="#000000" opacity="0.976471" />
<rect x="48" y="42" width="1" height="1" fill="#000000" opacity="0.345098" />
<rect x="49" y="42" width="1" height="17" fill="#000000" />
<rect x="15" y="43" width="1" height="6" fill="#000000" />
<rect x="47" y="43" width="2" height="17" fill="#000000" />
<rect x="61" y="43" width="1" height="1" fill="#000000" opacity="0.960784" />
<rect x="16" y="44" width="2" height="6" fill="#000000" />
<rect x="46" y="44" width="1" height="17" fill="#000000" />
<rect x="18" y="45" width="2" height="7" fill="#000000" />
<rect x="44" y="45" width="2" height="17" fill="#000000" />
<rect x="3" y="46" width="1" height="1" fill="#000000" opacity="0.956863" />
<rect x="12" y="46" width="1" height="1" fill="#000000" opacity="0.003922" />
<rect x="20" y="46" width="2" height="6" fill="#000000" />
<rect x="22" y="46" width="1" height="1" fill="#000000" opacity="0.964706" />
<rect x="40" y="46" width="1" height="1" fill="#000000" opacity="0.015686" />
<rect x="41" y="46" width="1" height="1" fill="#000000" opacity="0.929412" />
<rect x="42" y="46" width="2" height="17" fill="#000000" />
<rect x="9" y="47" width="1" height="8" fill="#000000" />
<rect x="22" y="47" width="4" height="1" fill="#000000" />
<rect x="38" y="47" width="4" height="1" fill="#000000" />
<rect x="4" y="48" width="1" height="1" fill="#000000" opacity="0.925490" />
<rect x="10" y="48" width="1" height="8" fill="#000000" />
<rect x="11" y="48" width="1" height="1" fill="#000000" opacity="0.035294" />
<rect x="22" y="48" width="3" height="1" fill="#000000" />
<rect x="39" y="48" width="3" height="2" fill="#000000" />
<rect x="11" y="49" width="1" height="8" fill="#000000" />
<rect x="22" y="49" width="2" height="2" fill="#000000" />
<rect x="12" y="50" width="1" height="8" fill="#000000" />
<rect x="17" y="50" width="1" height="1" fill="#000000" />
<rect x="40" y="50" width="2" height="12" fill="#000000" />
<rect x="22" y="51" width="1" height="1" fill="#000000" />
<rect x="13" y="52" width="1" height="7" fill="#000000" />
<rect x="14" y="54" width="1" height="6" fill="#000000" />
<rect x="15" y="55" width="2" height="5" fill="#000000" />
<rect x="17" y="56" width="6" height="5" fill="#000000" />
<rect x="52" y="56" width="1" height="1" fill="#000000" />
<rect x="23" y="57" width="1" height="5" fill="#000000" />
<rect x="50" y="58" width="1" height="1" fill="#000000" opacity="0.870588" />
<rect x="16" y="60" width="1" height="1" fill="#000000" opacity="0.996078" />
<rect x="47" y="60" width="1" height="1" fill="#000000" />
<rect x="18" y="61" width="5" height="1" fill="#000000" />
<rect x="20" y="62" width="3" height="1" fill="#000000" />
<rect x="41" y="62" width="1" height="1" fill="#000000" />
</svg>